<svg version="1.1" id="Layer_1" xmlns="http://www.w3.org/2000/svg" xmlns:xlink="http://www.w3.org/1999/xlink" x="0px" y="0px"
	width="240" height="44" viewBox="0 0 512 192" enable-background="new 0 0 512 192" xml:space="preserve">
<path fill="#000000" opacity="1.000000" stroke="none" 
	d="
M133.677780,113.604691 
	C139.150162,114.407120 143.168472,116.769951 145.307556,121.648338 
	C146.844437,125.153358 146.453232,128.596313 143.921631,131.477798 
	C141.496185,134.238480 138.288086,134.797394 134.777725,133.840897 
	C131.853027,133.043976 129.142303,131.754730 126.639549,130.094971 
	C124.238945,128.502960 122.610016,129.024368 120.613731,131.050232 
	C107.446320,144.412659 92.760742,144.684784 79.436928,131.800507 
	C77.269249,129.704346 75.405243,129.340363 72.809654,130.658752 
	C70.447136,131.858749 67.991798,132.955872 65.465141,133.733810 
	C61.822742,134.855286 58.403244,134.100830 56.030910,130.996735 
	C53.674843,127.913933 53.929169,124.387993 55.570999,121.060432 
	C59.918507,112.249199 69.249603,111.309395 76.849785,119.019524 
	C80.573502,117.453613 83.862991,113.772263 87.960815,113.995979 
	C95.987511,114.434212 103.916748,114.811584 111.974182,114.063362 
	C114.915894,113.790207 118.103828,116.168655 121.572334,117.486717 
	C124.408897,111.026024 124.816566,104.482925 124.557709,97.836365 
	C124.506798,96.529266 123.743874,95.564140 122.412231,95.472145 
	C112.436333,94.783043 102.909492,91.129166 92.809929,91.147339 
	C86.402206,91.158875 80.213715,92.036064 74.201309,94.246986 
	C72.840973,94.747223 71.503296,95.625710 69.831909,95.045052 
	C68.101128,92.434181 68.981949,89.522652 68.971107,86.794136 
	C68.958870,83.715805 68.064049,82.213692 64.692085,82.254402 
	C50.737541,82.422913 33.437393,68.750168 34.538147,49.550549 
	C35.493839,32.881161 49.698166,18.343332 66.515953,17.635618 
	C82.914986,16.945524 96.088005,24.260099 108.464874,33.771103 
	C114.662323,38.533527 120.377090,43.994606 127.678284,47.136166 
	C130.560699,48.376404 133.596741,49.867214 136.567459,47.271591 
	C137.525391,46.434608 137.905670,45.243530 137.165634,44.115425 
	C135.253601,41.200706 132.338242,40.363403 129.008453,40.084934 
	C126.434151,39.869648 123.888153,41.512371 121.405060,40.346706 
	C120.866989,38.612957 121.807098,37.836060 122.918976,37.432003 
	C130.886719,34.536514 139.028931,32.760563 147.263474,36.022659 
	C156.718430,39.768215 162.227386,49.756680 160.542755,59.331230 
	C158.630615,70.198692 150.256775,77.549843 139.183029,78.333694 
	C130.824783,78.925346 123.018562,77.075996 115.365929,73.880310 
	C105.407967,69.721947 95.900566,64.277992 84.944077,62.861076 
	C83.955292,62.733208 82.974869,62.414043 81.989571,62.409668 
	C79.033501,62.396526 75.225830,61.564587 73.732376,64.456375 
	C72.013542,67.784538 73.973778,71.601967 74.937675,75.088364 
	C75.391312,76.729134 76.986916,76.257393 78.354263,76.101845 
	C80.266106,75.884354 82.111588,74.726761 84.659698,75.687569 
	C83.580246,80.840157 73.539322,78.328918 75.772827,85.833755 
	C76.046936,86.007217 76.373962,86.374252 76.594856,86.318771 
	C89.296692,83.128418 101.314819,86.639122 113.348190,90.023468 
	C115.269608,90.563866 117.172478,91.263306 119.133492,91.548813 
	C122.390678,92.023018 125.134117,91.363159 125.984367,87.512291 
	C126.502968,85.163483 127.906487,83.659103 130.475098,83.597488 
	C131.914703,83.562950 133.144913,84.065010 133.771912,85.415024 
	C134.820145,87.672035 134.250763,89.697998 132.438919,91.274704 
	C129.645599,93.705482 129.075974,96.877220 129.093674,100.317268 
	C129.120331,105.497932 129.048828,110.789993 127.300362,115.628365 
	C125.524269,120.543190 127.627594,122.791931 131.559799,124.557404 
	C132.774597,125.102821 134.004776,125.616264 135.242065,126.108788 
	C137.104004,126.849976 138.911072,126.955162 140.069351,124.984558 
	C141.252686,122.971313 140.084564,121.321884 138.626266,120.198853 
	C136.018585,118.190697 133.189117,116.470512 130.501129,114.662727 
	C130.977325,112.555237 132.308655,113.551239 133.677780,113.604691 
M138.095367,51.897606 
	C133.019455,54.274258 128.302216,52.587696 123.701721,50.482643 
	C117.302193,47.554401 111.737732,43.251797 105.933937,39.351620 
	C97.478104,33.669273 88.979645,27.998529 78.779572,25.953114 
	C69.450302,24.082319 60.398071,24.677073 52.865284,31.321108 
	C45.021637,38.239334 41.513878,47.211334 43.819637,57.382175 
	C46.167938,67.740654 53.304001,74.358353 63.539566,77.373177 
	C65.208176,77.864655 67.244675,78.478355 68.511368,76.461441 
	C70.955765,72.569298 67.705177,63.372387 63.283661,61.797634 
	C61.031166,60.995388 59.457077,59.674946 59.166260,57.289192 
	C58.941776,55.447590 59.965832,54.088623 61.615883,53.309654 
	C64.144035,52.116154 66.149857,53.046841 67.770752,55.055077 
	C70.193527,58.056816 73.408890,58.887882 77.105110,58.854252 
	C82.254906,58.807388 87.394882,58.394859 92.557953,59.245037 
	C101.177795,60.664421 109.219254,63.863670 117.385338,66.726250 
	C124.956223,69.380180 132.600983,71.731598 140.807358,70.746735 
	C149.276627,69.730339 155.426102,62.025139 154.610382,53.446167 
	C153.843506,45.380901 146.583206,38.500610 139.407089,39.038605 
	C143.469864,45.198559 143.382477,46.947582 138.095367,51.897606 
M107.250198,122.255486 
	C98.121017,120.288574 89.689751,121.790543 81.627029,126.823456 
	C88.763496,134.867111 100.064873,137.470825 108.923058,133.367447 
	C112.072609,131.908493 116.470169,130.331070 116.205772,126.684647 
	C115.936195,122.966675 111.066338,123.447708 107.250198,122.255486 
M71.484428,121.436295 
	C70.898369,119.148254 70.446426,116.399780 67.143967,117.420502 
	C63.931499,118.413399 60.759277,120.045082 60.507793,123.962425 
	C60.351833,126.391754 62.396851,127.093407 64.356873,126.392799 
	C66.951447,125.465370 69.850037,124.837082 71.484428,121.436295 
z"/>
<path fill="#000000" opacity="1.000000" stroke="none" 
	d="
M60.007462,150.762848 
	C73.115288,145.904099 86.184914,146.652023 99.329834,148.188858 
	C112.033478,149.674118 124.427231,152.838348 137.596237,155.440216 
	C136.967010,149.400009 138.166122,144.587692 144.603943,143.359131 
	C149.575684,142.410324 153.534515,144.342880 156.083725,148.566849 
	C158.219482,152.105728 159.607498,155.954819 157.034332,160.027740 
	C154.380219,159.161804 154.948700,157.239868 154.802948,155.695297 
	C154.507248,152.561554 153.404587,149.838226 150.811630,147.962982 
	C148.461334,146.263214 145.857071,145.890762 143.348938,147.589966 
	C141.091461,149.119354 139.590073,151.191620 141.461700,153.880432 
	C143.083771,156.210724 145.290146,156.302673 147.499313,154.523148 
	C148.657379,153.590317 149.756287,152.184845 151.252167,153.909317 
	C152.709091,155.588867 152.244247,157.378098 151.029663,158.926895 
	C149.095108,161.393784 146.493408,161.231308 143.746109,160.611694 
	C133.688583,158.343353 123.647911,155.983047 113.541771,153.951477 
	C97.956291,150.818466 82.242058,149.350876 66.474426,152.410294 
	C59.939980,153.678162 54.231991,156.833176 50.450901,162.608795 
	C45.359348,170.386169 48.421211,180.287018 56.431870,182.147049 
	C60.252567,183.034225 63.084515,181.418869 64.449097,177.944687 
	C65.545357,175.153656 64.603981,172.808563 60.923355,171.665863 
	C62.468868,174.380035 64.868523,176.812363 61.546112,179.200653 
	C59.172207,180.907120 57.029243,179.720398 55.385006,177.866043 
	C53.459465,175.694427 52.496490,172.447205 54.574940,170.643082 
	C56.881474,168.640930 60.330723,167.163467 63.774494,168.768692 
	C67.337418,170.429459 68.979561,173.346252 68.458572,177.280670 
	C67.715416,182.892822 62.129658,186.733109 56.346294,185.704544 
	C46.854488,184.016418 41.901566,174.223938 45.600346,164.290817 
	C48.098282,157.582581 53.329491,153.648254 60.007462,150.762848 
z"/>
<path fill="#000000" opacity="1.000000" stroke="none" 
	d="
M235.372803,122.282257 
	C233.783966,122.339081 232.618393,122.365990 231.452820,122.365997 
	C225.024200,122.366051 225.177994,122.428360 227.478683,116.947502 
	C228.208344,115.209274 227.973007,113.028107 228.012360,111.046326 
	C228.081757,107.550568 227.781509,104.031631 228.078018,100.560158 
	C228.460846,96.077835 227.387085,92.068512 224.252960,88.456696 
	C232.713638,86.673828 233.450455,86.977425 237.361496,93.116905 
	C241.094940,98.977592 244.850494,104.824181 249.634705,110.467201 
	C249.634705,105.227219 249.608124,99.987022 249.648102,94.747345 
	C249.663605,92.715134 248.142319,92.083923 246.847321,91.013077 
	C245.124313,89.588310 245.269531,87.789673 247.806137,87.743385 
	C251.359497,87.678558 255.044678,86.870094 258.920563,88.574638 
	C252.039597,97.340256 256.572479,107.333710 255.221817,116.645630 
	C254.934082,118.629311 256.072662,121.268562 253.135757,122.139648 
	C250.231888,123.000923 248.937683,120.778625 247.663513,118.823181 
	C243.225494,112.012154 238.834778,105.170296 233.408005,98.524429 
	C233.408005,104.223717 233.392944,109.923073 233.417664,115.622253 
	C233.424637,117.232224 234.725616,117.737907 235.884811,118.439857 
	C237.932541,119.679893 238.468781,121.036583 235.372803,122.282257 
z"/>
<path fill="#000000" opacity="1.000000" stroke="none" 
	d="
M404.945190,117.302231 
	C406.644470,118.434334 409.401062,118.233597 408.833344,120.815460 
	C408.366486,122.938545 406.120056,122.324966 404.574860,122.313843 
	C402.137787,122.296288 399.604828,122.881737 396.992981,121.490738 
	C397.739441,117.742867 396.945251,114.431152 393.190460,112.060463 
	C390.745667,113.743034 388.666168,115.418350 391.878082,118.436226 
	C392.119965,118.663475 392.430145,118.844101 392.603271,119.113945 
	C393.326080,120.240654 393.445435,121.703255 392.042328,121.947136 
	C388.480560,122.566246 384.758331,123.138046 381.327148,121.603027 
	C380.170349,121.085503 380.584747,119.509254 381.773895,118.768661 
	C382.809296,118.123856 383.801270,117.421463 383.810730,116.138596 
	C383.870880,108.000053 383.880005,99.860970 383.847290,91.722290 
	C383.844849,91.116508 383.555420,90.272972 383.105408,89.951538 
	C381.601227,88.877075 379.551788,87.888489 381.073639,85.753426 
	C382.396637,83.897339 384.765533,84.859238 386.691284,84.809853 
	C389.142944,84.746979 389.761200,86.504379 389.820953,88.457817 
	C389.947968,92.609039 389.885162,96.765976 390.004089,100.917587 
	C390.049286,102.495476 389.459076,104.227966 390.992676,105.907570 
	C393.130035,103.904060 396.759918,103.147636 395.193451,98.805763 
	C394.648315,97.294716 395.797272,96.284409 397.302216,96.049660 
	C398.442688,95.871765 399.638306,95.786034 400.778137,95.921669 
	C402.920380,96.176590 405.945892,94.786797 406.812775,97.816521 
	C407.601654,100.573654 404.377228,100.472656 402.946930,101.549026 
	C396.992737,106.029762 396.785095,107.301315 401.580170,113.155281 
	C402.632172,114.439636 403.626099,115.771553 404.945190,117.302231 
z"/>
<path fill="#000000" opacity="1.000000" stroke="none" 
	d="
M481.919373,120.583595 
	C483.233551,117.338608 481.537170,115.483940 479.781464,113.627228 
	C478.465485,112.235466 477.217804,112.319481 475.966522,113.689903 
	C474.707520,115.068901 473.988708,116.478790 475.896088,117.880821 
	C477.069733,118.743530 478.855286,119.356712 477.827484,121.268913 
	C476.963135,122.876961 475.174774,122.252571 473.754517,122.348038 
	C472.264130,122.448219 470.758881,122.425262 469.265350,122.350746 
	C467.992004,122.287216 466.434814,122.716385 465.690125,121.248405 
	C464.855469,119.603149 466.202148,118.893478 467.322479,118.148430 
	C468.785339,117.175621 468.793243,115.642853 468.794830,114.134369 
	C468.802155,107.147514 468.808289,100.160576 468.781036,93.173805 
	C468.775909,91.863144 468.909637,90.412361 467.563110,89.581009 
	C466.211212,88.746368 464.774597,87.720932 465.713013,86.072777 
	C467.065063,83.698158 469.587006,84.924545 471.621613,84.829399 
	C473.461792,84.743347 474.318237,85.920807 474.332825,87.669350 
	C474.375793,92.825577 474.357880,97.982338 474.409607,103.138428 
	C474.419159,104.090500 474.165527,105.170959 475.507324,106.174820 
	C477.610962,104.015785 481.924683,103.505447 480.113617,98.567329 
	C479.557434,97.050819 480.914642,96.131798 482.412170,95.995125 
	C483.898163,95.859497 485.404602,95.840134 486.896362,95.903664 
	C488.671051,95.979225 490.971100,95.449722 491.759125,97.521416 
	C492.754028,100.136879 489.969360,100.178703 488.607056,101.100960 
	C481.511078,105.904922 482.148224,111.743347 490.361694,117.526512 
	C491.703888,118.471565 494.575012,118.437332 493.742157,120.992554 
	C493.021851,123.202599 490.565735,122.399445 488.896698,122.303078 
	C486.565094,122.168442 483.872040,123.448143 481.919373,120.583595 
z"/>
<path fill="#000000" opacity="1.000000" stroke="none" 
	d="
M444.348267,101.500504 
	C444.489319,103.211174 443.992188,104.589333 445.312073,106.291061 
	C447.476471,104.024689 451.704956,103.589294 450.054565,98.699020 
	C449.504639,97.069504 450.719116,96.177071 452.206116,96.041489 
	C454.021637,95.875946 455.861847,95.899551 457.687836,95.955971 
	C459.164307,96.001587 460.867279,95.923485 461.359924,97.802727 
	C461.924805,99.957466 460.047485,100.039177 458.758820,100.695374 
	C456.478333,101.856560 455.050995,103.988937 453.339447,105.791847 
	C452.235779,106.954369 452.245697,108.177826 453.247406,109.360359 
	C455.902893,112.495155 457.664917,116.480370 461.705750,118.303764 
	C462.837006,118.814240 463.815338,119.495361 463.458679,120.914894 
	C463.086487,122.396400 461.741455,122.345657 460.608002,122.316124 
	C457.825989,122.243660 454.977966,122.870644 451.990997,121.613724 
	C452.725769,117.553329 451.566284,114.231758 447.537598,112.009956 
	C445.007538,114.102501 442.253540,115.874138 446.978394,118.889305 
	C449.009399,120.185364 448.376526,121.944366 446.061707,122.179916 
	C443.100006,122.481300 440.052979,122.518112 437.102448,122.167007 
	C434.889160,121.903633 434.153931,120.100174 436.275421,118.841042 
	C438.853241,117.311066 438.709595,115.140785 438.713318,112.816154 
	C438.722321,107.158737 438.772827,101.500923 438.719238,95.844086 
	C438.693573,93.135658 439.484833,90.181648 435.950012,88.587540 
	C434.561951,87.961578 434.677032,86.130768 436.117096,85.337776 
	C438.087097,84.252975 440.359772,84.555527 442.459930,85.002319 
	C444.683472,85.475365 444.285370,87.503929 444.313599,89.091850 
	C444.384583,93.084091 444.344208,97.078300 444.348267,101.500504 
z"/>
<path fill="#000000" opacity="1.000000" stroke="none" 
	d="
M290.674194,117.906372 
	C290.669891,113.432327 290.675659,109.443825 290.661957,105.455399 
	C290.654602,103.312050 290.983612,101.045685 288.227081,100.083878 
	C287.146149,99.706703 286.801788,98.665596 287.134460,97.616936 
	C287.541809,96.332787 288.715973,95.758644 289.896881,95.946342 
	C294.760559,96.719421 299.618652,95.736710 304.416473,95.944008 
	C311.094086,96.232513 314.984802,104.908142 313.104584,113.931320 
	C311.691040,120.714851 306.493652,124.112465 299.914093,122.559074 
	C298.968262,122.335762 298.016754,122.136566 296.814026,121.869934 
	C296.257202,124.415390 295.552917,126.626945 298.461517,128.002884 
	C299.598114,128.540573 300.326477,129.460678 299.918304,130.809891 
	C299.491089,132.222214 298.221802,132.226929 297.064117,132.268311 
	C295.570160,132.321747 294.065277,132.393646 292.579803,132.274490 
	C290.855011,132.136124 288.653381,133.086914 287.601746,131.050049 
	C286.536987,128.987808 288.892853,128.401749 289.748138,127.130348 
	C291.555817,124.443245 290.350098,121.311516 290.674194,117.906372 
M304.242554,117.574486 
	C307.808350,113.898949 308.834076,108.112320 306.513245,103.989754 
	C305.225861,101.702911 303.371338,99.940765 300.491302,100.682487 
	C297.838837,101.365601 296.247620,103.132812 296.333923,106.096870 
	C296.391724,108.082870 296.289948,110.073433 296.344025,112.059654 
	C296.479340,117.030609 298.341522,118.508171 304.242554,117.574486 
z"/>
<path fill="#000000" opacity="1.000000" stroke="none" 
	d="
M355.767975,101.192612 
	C352.892487,99.930397 350.392822,100.050560 348.809082,102.486633 
	C347.743835,104.125114 346.869110,106.189568 344.814697,104.665756 
	C342.884186,103.233826 343.053009,100.415764 344.420929,98.790146 
	C347.582336,95.033165 352.152069,95.222755 356.444275,96.005554 
	C360.336945,96.715477 363.108856,99.058472 363.294312,103.415459 
	C363.407440,106.073570 363.382141,108.740395 363.334778,111.401810 
	C363.273621,114.841385 362.900177,118.339821 366.336304,120.318039 
	C365.708344,121.234840 365.570282,121.681572 365.341644,121.734138 
	C360.190186,122.918617 354.935211,121.667747 349.631012,122.752991 
	C346.081573,123.479202 342.793640,120.525581 342.453003,116.045914 
	C342.130676,111.807121 344.056915,108.990410 348.016022,107.680847 
	C349.721741,107.116638 351.562622,106.846687 353.362732,106.704330 
	C358.159485,106.324974 358.459595,105.805626 355.767975,101.192612 
M353.733856,117.491219 
	C356.081146,116.272896 359.114960,114.932312 356.735321,111.822578 
	C355.287750,109.930916 352.417053,110.850983 350.336945,111.875488 
	C348.757629,112.653366 347.907776,114.201370 348.461761,115.989304 
	C349.191772,118.345360 351.215912,117.787529 353.733856,117.491219 
z"/>
<path fill="#000000" opacity="1.000000" stroke="none" 
	d="
M323.486816,112.886383 
	C324.604279,117.639374 327.433167,119.059494 331.714386,117.845627 
	C332.513062,117.619179 333.296417,117.338608 334.087219,117.084160 
	C335.515350,116.624619 336.766846,116.812607 337.466980,118.272400 
	C338.290710,119.989937 336.951447,120.673965 335.787415,121.300613 
	C331.908325,123.388870 327.910858,123.770973 323.820770,121.923798 
	C319.066071,119.776459 316.251221,114.282341 316.756134,108.181587 
	C317.254944,102.153816 320.603638,97.556778 325.580750,96.067223 
	C333.007751,93.844460 340.199280,100.206642 339.247498,107.998932 
	C338.904541,110.806465 337.072510,110.807968 335.026459,111.104019 
	C331.206604,111.656754 327.088715,109.832520 323.486816,112.886383 
M324.694031,105.695107 
	C327.416351,106.068512 330.138245,106.436340 332.921906,105.275269 
	C332.767303,102.032249 331.031067,100.359734 328.248718,100.564224 
	C325.733856,100.749062 323.483795,101.979980 324.694031,105.695107 
z"/>
<path fill="#000000" opacity="1.000000" stroke="none" 
	d="
M274.751770,95.739822 
	C282.587738,97.871346 285.514099,102.002823 285.301086,110.064980 
	C285.119110,116.954086 281.727020,121.434258 275.675385,122.778320 
	C266.405334,124.837204 259.049194,114.944504 262.165222,104.609497 
	C263.953186,98.679413 267.620789,95.998131 274.751770,95.739822 
M275.467651,117.794113 
	C279.847748,114.320297 281.144684,107.531898 278.147797,103.237175 
	C276.609039,101.032059 274.498627,99.769020 271.718536,100.694038 
	C268.469330,101.775139 266.442688,106.952209 267.487061,111.957275 
	C268.284027,115.776535 269.892456,118.995171 275.467651,117.794113 
z"/>
<path fill="#000000" opacity="1.000000" stroke="none" 
	d="
M430.576843,118.409088 
	C425.422180,123.560562 420.276031,124.419548 415.145416,121.260994 
	C410.232208,118.236282 408.013153,110.288834 410.269135,103.796852 
	C412.168549,98.330978 416.946625,95.197639 422.553375,95.741135 
	C429.965912,96.459686 434.755859,104.087730 432.954620,112.563202 
	C432.548676,114.473282 431.536743,116.254570 430.576843,118.409088 
M424.203888,101.275581 
	C421.457581,99.593102 419.001495,100.203621 417.177124,102.610115 
	C414.404816,106.267090 414.790588,110.433113 416.108063,114.473717 
	C416.883148,116.850685 418.879944,118.410385 421.408051,118.313858 
	C423.874603,118.219673 425.712402,116.724625 426.577087,114.267830 
	C428.157776,109.776535 428.313965,105.496246 424.203888,101.275581 
z"/>
<path fill="#000000" opacity="1.000000" stroke="none" 
	d="
M505.190308,112.645355 
	C505.219879,115.075386 504.990967,117.123634 507.113190,118.367828 
	C508.182159,118.994530 508.939972,119.894875 508.331451,121.234070 
	C507.837982,122.320122 506.745270,122.281403 505.768585,122.326851 
	C504.611542,122.380684 503.450989,122.368889 502.291962,122.368721 
	C495.969696,122.367821 496.982239,122.589951 498.236481,116.918190 
	C499.430634,111.518158 501.075836,105.265381 496.751801,100.035240 
	C495.892761,98.996185 495.447968,97.899612 496.339203,96.965660 
	C497.893738,95.336670 500.040497,95.917770 501.982269,96.035431 
	C503.942322,96.154190 505.003632,97.379280 505.050385,99.281204 
	C505.156281,103.583939 505.148499,107.889458 505.190308,112.645355 
z"/>
<path fill="#000000" opacity="1.000000" stroke="none" 
	d="
M502.805237,90.971115 
	C500.279114,91.074486 498.901703,90.268036 498.909546,87.921219 
	C498.914337,86.493736 499.327972,85.268951 500.892273,84.937256 
	C502.202393,84.659454 503.701630,84.557220 504.435760,85.903145 
	C505.478180,87.814270 505.507812,89.702614 502.805237,90.971115 
z"/>
</svg>